<svg width="424" height="466" viewBox="0 0 424 466" fill="none" xmlns="http://www.w3.org/2000/svg">
<path d="M25.995 464.922H0V364.783H25.995V404.123H38.9925L61.5216 364.783H88.9608L60.6551 414.137L88.8164 464.922H61.3772L38.9925 424.151H25.995V464.922Z" fill="white"/>
<path d="M125.912 464.922H99.9174V444.894V384.81V364.783H125.912V384.81V444.894V464.922Z" fill="white"/>
<path d="M226.941 464.922H199.501L164.841 404.838V464.922H138.846V364.783H166.285L200.945 424.866V364.783H226.941V464.922Z" fill="white"/>
<path d="M318.243 464.922H238.092V364.783H318.243V384.81H264.087V404.123H306.69V424.151H264.087V444.894H318.243V464.922Z" fill="white"/>
<path d="M398.005 391.611C398.005 385.889 395.116 383.028 389.34 383.028H364.789C359.012 383.028 356.124 385.889 356.124 391.611V437.389C356.124 443.111 359.012 445.972 364.789 445.972H389.34C395.116 445.972 398.005 443.111 398.005 437.389V391.611ZM424 437.389C424 447.403 421.689 454.699 417.068 459.276C412.543 463.759 405.226 466 395.117 466H359.012C348.903 466 341.537 463.759 336.916 459.276C332.391 454.699 330.129 447.403 330.129 437.389V391.611C330.129 381.597 332.391 374.349 336.916 369.867C341.537 365.289 348.903 363 359.012 363H395.117C405.226 363 412.543 365.289 417.068 369.867C421.689 374.349 424 381.597 424 391.611V437.389Z" fill="white"/>
<path d="M67.0869 90.2485C50.4149 125.294 47.4461 165.187 58.7511 202.263C70.0561 239.338 94.8374 270.981 128.334 291.112C161.83 311.243 201.679 318.442 240.223 311.325C278.768 304.208 313.29 283.279 337.157 252.557C361.024 221.835 372.552 183.489 369.526 144.884C366.5 106.28 349.133 70.1419 320.763 43.4123C292.393 16.6828 255.021 1.24763 215.826 0.072398C176.631 -1.10284 138.379 12.0647 108.419 37.0453C141.291 19.3349 179.63 12.6904 215.405 13.7631C251.18 14.8358 285.292 28.9243 311.187 53.3219C337.082 77.7195 352.933 110.705 355.695 145.941C358.457 181.178 347.935 216.179 326.151 244.22C304.366 272.262 272.856 291.366 237.674 297.861C202.492 304.357 166.12 297.786 135.546 279.412C104.972 261.037 82.3524 232.155 72.0336 198.314C61.7149 164.473 58.7511 122.97 67.0869 90.2485Z" fill="#C36E0C"/>
<path d="M318.077 176.436C322.932 150.361 317.857 123.434 303.827 100.828C289.798 78.2229 267.803 61.534 242.069 53.968C216.336 46.4019 188.678 48.4923 164.411 59.8377C140.143 71.183 120.977 90.9829 110.596 115.433C100.214 139.884 99.3484 167.26 108.166 192.302C116.983 217.344 134.861 238.286 158.364 251.104C181.868 263.921 209.34 267.711 235.501 261.744C261.663 255.778 284.668 240.476 300.098 218.779C284.625 232.793 255.748 244.246 232.641 249.516C209.534 254.786 185.269 251.439 164.509 240.118C143.749 228.796 127.958 210.299 120.171 188.181C112.383 166.062 113.147 141.882 122.317 120.286C131.487 98.6897 148.415 81.2013 169.85 71.1804C191.284 61.1596 215.713 59.3132 238.442 65.996C261.172 72.6788 281.492 89.7141 292.99 107.386C307.275 129.34 315.955 156.226 318.077 176.436Z" fill="#C36E0C"/>
<path d="M176.97 203.531C188.273 211.916 202.29 215.932 216.384 214.824C230.477 213.716 243.674 207.56 253.491 197.515C263.308 187.469 269.069 174.227 269.688 160.28C270.307 146.334 265.743 132.645 256.854 121.789C247.965 110.934 235.364 103.661 221.424 101.339C207.483 99.017 193.163 101.806 181.16 109.182C169.156 116.558 160.297 128.011 156.249 141.387C152.201 154.762 153.244 169.137 159.181 181.807C159.181 162.976 163.236 152.57 166.619 143.651C170.002 134.732 175.719 126.02 186.943 119.123C196.189 113.442 208.47 112.512 219.209 114.3C229.948 116.089 239.655 121.692 246.502 130.054C253.35 138.416 256.866 148.961 256.389 159.705C255.912 170.448 250.48 182.55 241.14 190.477C231.799 198.404 222.55 201.702 216.384 203.531C210.217 205.36 191.459 206.085 176.97 203.531Z" fill="#C36E0C"/>
</svg>
