<svg width="181" height="52" viewBox="0 0 181 52" fill="none" xmlns="http://www.w3.org/2000/svg">
<path d="M2.48905 14.9202C-0.261516 20.714 -0.751296 27.3093 1.11381 33.4387C2.97891 39.5682 7.06733 44.7995 12.5936 48.1276C18.1198 51.4557 24.6941 52.6458 31.0532 51.4693C37.4123 50.2928 43.1078 46.8326 47.0453 41.7536C50.9829 36.6745 52.8847 30.3349 52.3855 23.9528C51.8863 17.5706 49.0212 11.5961 44.3407 7.17707C39.6602 2.75806 33.4944 0.206264 27.0281 0.0119699C20.5617 -0.182324 14.2508 1.99459 9.30798 6.12445C14.7312 3.19652 21.0564 2.09801 26.9586 2.27536C32.8608 2.4527 38.4887 4.78187 42.7608 8.81536C47.033 12.8489 49.6481 18.3022 50.1038 24.1275C50.5595 29.9529 48.8236 35.7394 45.2295 40.3753C41.6355 45.0112 36.4369 48.1696 30.6326 49.2434C24.8282 50.3173 18.8275 49.231 13.7834 46.1933C8.73928 43.1555 5.00754 38.3806 3.30516 32.7859C1.60277 27.1912 1.1138 20.3299 2.48905 14.9202Z" fill="#C36E0C"/>
<path d="M43.8976 29.169C44.6985 24.8581 43.8612 20.4064 41.5466 16.6693C39.2319 12.9321 35.6033 10.173 31.3577 8.92216C27.1122 7.67131 22.5493 8.01691 18.5456 9.89256C14.5419 11.7682 11.3799 15.0416 9.66714 19.0838C7.95434 23.126 7.81156 27.652 9.26623 31.792C10.7209 35.9321 13.6704 39.3942 17.5481 41.5133C21.4257 43.6323 25.958 44.2589 30.2741 43.2725C34.5902 42.286 38.3857 39.7563 40.9314 36.1692C38.3786 38.4861 33.6145 40.3796 29.8022 41.2509C25.99 42.1221 21.9868 41.5688 18.5618 39.6971C15.1368 37.8254 12.5317 34.7674 11.2468 31.1107C9.96196 27.4539 10.0881 23.4564 11.6009 19.886C13.1138 16.3157 15.9066 13.4245 19.4429 11.7678C22.9792 10.1111 27.0094 9.80585 30.7593 10.9107C34.5093 12.0155 37.8617 14.8318 39.7587 17.7534C42.1154 21.3829 43.5475 25.8279 43.8976 29.169Z" fill="#C36E0C"/>
<path d="M20.6175 33.6484C22.4824 35.0346 24.795 35.6986 27.1201 35.5154C29.4452 35.3322 31.6224 34.3145 33.2421 32.6538C34.8617 30.993 35.8121 28.8038 35.9143 26.4981C36.0164 24.1924 35.2634 21.9293 33.7969 20.1346C32.3304 18.34 30.2515 17.1376 27.9516 16.7537C25.6516 16.3698 23.2892 16.831 21.3088 18.0503C19.3285 19.2697 17.8669 21.1632 17.1991 23.3745C16.5312 25.5858 16.7032 27.9623 17.6827 30.0569C17.6827 26.9437 18.3517 25.2234 18.9099 23.7489C19.4681 22.2743 20.4113 20.834 22.2629 19.6939C23.7884 18.7546 25.8146 18.6008 27.5863 18.8965C29.358 19.1922 30.9594 20.1185 32.0891 21.5009C33.2188 22.8834 33.7989 24.6268 33.7202 26.4029C33.6414 28.179 32.7453 30.1797 31.2043 31.4903C29.6634 32.8008 28.1375 33.346 27.1201 33.6484C26.1026 33.9508 23.008 34.0707 20.6175 33.6484Z" fill="#C36E0C"/>
<path d="M81.2095 38.7999H74.6918V13.5652H81.2095V23.4788H84.4683L90.1169 13.5652H96.9967L89.8997 26.0023L96.9605 38.7999H90.0807L84.4683 28.5258H81.2095V38.7999Z" fill="white"/>
<path d="M106.261 38.7999H99.7438V33.753V18.6121V13.5652H106.261V18.6121V33.753V38.7999Z" fill="white"/>
<path d="M131.592 38.7999H124.712L116.022 23.6591V38.7999H109.504V13.5652H116.384L125.074 28.706V13.5652H131.592V38.7999Z" fill="white"/>
<path d="M154.484 38.7999H134.388V13.5652H154.484V18.6121H140.905V23.4788H151.587V28.5258H140.905V33.753H154.484V38.7999Z" fill="white"/>
<path d="M174.482 20.3259C174.482 18.8839 173.758 18.1629 172.31 18.1629H166.154C164.706 18.1629 163.982 18.8839 163.982 20.3259V31.8618C163.982 33.3038 164.706 34.0248 166.154 34.0248H172.31C173.758 34.0248 174.482 33.3038 174.482 31.8618V20.3259ZM181 31.8618C181 34.3852 180.421 36.2238 179.262 37.3774C178.127 38.5069 176.293 39.0717 173.758 39.0717H164.706C162.171 39.0717 160.324 38.5069 159.166 37.3774C158.031 36.2238 157.464 34.3852 157.464 31.8618V20.3259C157.464 17.8024 158.031 15.9759 159.166 14.8463C160.324 13.6927 162.171 13.1159 164.706 13.1159H173.758C176.293 13.1159 178.127 13.6927 179.262 14.8463C180.421 15.9759 181 17.8024 181 20.3259V31.8618Z" fill="white"/>
</svg>
