<svg width="70" height="65" viewBox="0 0 70 65" fill="none" xmlns="http://www.w3.org/2000/svg">
<path d="M18 16C18 13.7909 16.2091 12 14 12C11.7909 12 10 13.7909 10 16H14H18ZM39 4C39 1.79086 37.2091 0 35 0C32.7909 0 31 1.79086 31 4L35 4L39 4ZM60 28C60 25.7909 58.2091 24 56 24C53.7909 24 52 25.7909 52 28H56H60ZM66 65C68.2091 65 70 63.2091 70 61C70 58.7909 68.2091 57 66 57V61V65ZM4 57C1.79086 57 0 58.7909 0 61C0 63.2091 1.79086 65 4 65V61V57ZM14 51H18L18 16H14H10L10 51H14ZM35 51H39V4L35 4L31 4L31 51H35ZM56 51H60V28H56H52V51H56ZM66 61V57H4V61V65H66V61Z" fill="white"/>
</svg>
